<svg width="92" height="82" viewBox="0 0 92 82" fill="none" xmlns="http://www.w3.org/2000/svg">
<path fill-rule="evenodd" clip-rule="evenodd" d="M70.3378 14.7436C70.52 15.0622 70.8389 15.2897 71.2489 15.2897C82.1822 15.2897 91.1111 24.2087 91.1111 35.1299V62.1598C91.1111 73.081 82.1822 82 71.2489 82H19.8622C8.88333 82 0 73.081 0 62.1598V35.1299C0 24.2087 8.88333 15.2897 19.8622 15.2897C20.2267 15.2897 20.5911 15.1077 20.7278 14.7436L21.0011 14.1976C21.1581 13.867 21.3193 13.5275 21.4829 13.1829C22.6484 10.7281 23.9377 8.01232 24.7367 6.4162C26.8322 2.32075 30.3856 0.045505 34.8044 0H56.2611C60.68 0.045505 64.2789 2.32075 66.3745 6.4162C67.092 7.8497 68.1852 10.1588 69.2389 12.3844C69.4562 12.8435 69.6719 13.299 69.8822 13.7425L70.3378 14.7436ZM67.0123 32.2175C67.0123 34.4928 68.8345 36.313 71.1123 36.313C73.3901 36.313 75.2579 34.4928 75.2579 32.2175C75.2579 29.9423 73.3901 28.0766 71.1123 28.0766C68.8345 28.0766 67.0123 29.9423 67.0123 32.2175ZM37.6744 39.2708C39.8155 37.1321 42.5944 35.9945 45.5555 35.9945C48.5166 35.9945 51.2955 37.1321 53.3911 39.2253C55.4866 41.3185 56.6255 44.0943 56.6255 47.0522C56.58 53.1498 51.66 58.1099 45.5555 58.1099C42.5944 58.1099 39.8155 56.9723 37.72 54.879C35.6244 52.7858 34.4855 50.01 34.4855 47.0522V47.0067C34.44 44.1399 35.5788 41.364 37.6744 39.2708ZM58.1745 59.7026C54.94 62.9334 50.4756 64.9356 45.5556 64.9356C40.7722 64.9356 36.3078 63.0699 32.8911 59.7026C29.52 56.2897 27.6522 51.8302 27.6522 47.0522C27.6067 42.3196 29.4745 37.8602 32.8456 34.4473C36.2622 31.0344 40.7722 29.1687 45.5556 29.1687C50.3389 29.1687 54.8489 31.0344 58.22 34.4018C61.5911 37.8147 63.4589 42.3196 63.4589 47.0522C63.4133 52.0122 61.4089 56.4717 58.1745 59.7026Z" fill="white"/>
</svg>
